<svg width="41" height="40" viewBox="0 0 41 40" fill="none" xmlns="http://www.w3.org/2000/svg">
<rect x="0.419922" width="40" height="40" rx="20" fill="#619111"/>
<path fill-rule="evenodd" clip-rule="evenodd" d="M21.6299 11.0592C22.0913 10.6165 22.8243 10.6316 23.267 11.093L31.0447 19.1983C31.4747 19.6463 31.4747 20.3537 31.0447 20.8017L23.267 28.9069C22.8243 29.3684 22.0913 29.3835 21.6299 28.9407C21.1684 28.4979 21.1534 27.7649 21.5961 27.3035L27.4581 21.1946H10.5251C9.88559 21.1946 9.36719 20.6762 9.36719 20.0367C9.36719 19.3972 9.88559 18.8788 10.5251 18.8788H27.5287L21.5961 12.6964C21.1534 12.235 21.1684 11.502 21.6299 11.0592Z" fill="white"/>
</svg>
