<svg width="18" height="18" viewBox="0 0 18 18" fill="none" xmlns="http://www.w3.org/2000/svg">
<path d="M6.67559 9.56856H5.62385C5.45032 9.56856 5.30833 9.42662 5.30833 9.25304V8.20131C5.30833 8.02777 5.45032 7.88579 5.62385 7.88579H6.67559C6.84912 7.88579 6.9911 8.02777 6.9911 8.20131V9.25304C6.9911 9.42662 6.84912 9.56856 6.67559 9.56856ZM9.51526 9.25304V8.20131C9.51526 8.02777 9.37332 7.88579 9.19974 7.88579H8.14801C7.97447 7.88579 7.83249 8.02777 7.83249 8.20131V9.25304C7.83249 9.42662 7.97447 9.56856 8.14801 9.56856H9.19974C9.37332 9.56856 9.51526 9.42662 9.51526 9.25304ZM12.0394 9.25304V8.20131C12.0394 8.02777 11.8975 7.88579 11.7239 7.88579H10.6722C10.4986 7.88579 10.3566 8.02777 10.3566 8.20131V9.25304C10.3566 9.42662 10.4986 9.56856 10.6722 9.56856H11.7239C11.8975 9.56856 12.0394 9.42662 12.0394 9.25304ZM9.51526 11.7772V10.7255C9.51526 10.5519 9.37332 10.4099 9.19974 10.4099H8.14801C7.97447 10.4099 7.83249 10.5519 7.83249 10.7255V11.7772C7.83249 11.9508 7.97447 12.0927 8.14801 12.0927H9.19974C9.37332 12.0927 9.51526 11.9508 9.51526 11.7772ZM6.9911 11.7772V10.7255C6.9911 10.5519 6.84912 10.4099 6.67559 10.4099H5.62385C5.45032 10.4099 5.30833 10.5519 5.30833 10.7255V11.7772C5.30833 11.9508 5.45032 12.0927 5.62385 12.0927H6.67559C6.84912 12.0927 6.9911 11.9508 6.9911 11.7772ZM12.0394 11.7772V10.7255C12.0394 10.5519 11.8975 10.4099 11.7239 10.4099H10.6722C10.4986 10.4099 10.3566 10.5519 10.3566 10.7255V11.7772C10.3566 11.9508 10.4986 12.0927 10.6722 12.0927H11.7239C11.8975 12.0927 12.0394 11.9508 12.0394 11.7772ZM14.5636 4.94094V14.1962C14.5636 14.8929 13.9982 15.4583 13.3015 15.4583H4.04626C3.34949 15.4583 2.78418 14.8929 2.78418 14.1962V4.94094C2.78418 4.24417 3.34949 3.67886 4.04626 3.67886H5.30833V2.31161C5.30833 2.13808 5.45032 1.99609 5.62385 1.99609H6.67559C6.84912 1.99609 6.9911 2.13808 6.9911 2.31161V3.67886H10.3566V2.31161C10.3566 2.13808 10.4986 1.99609 10.6722 1.99609H11.7239C11.8975 1.99609 12.0394 2.13808 12.0394 2.31161V3.67886H13.3015C13.9982 3.67886 14.5636 4.24417 14.5636 4.94094ZM13.3015 14.0384V6.20302H4.04626V14.0384C4.04626 14.1252 4.11725 14.1962 4.20402 14.1962H13.1437C13.2305 14.1962 13.3015 14.1252 13.3015 14.0384Z" fill="white"/>
</svg>
