<svg width="20" height="21" viewBox="0 0 20 21" fill="none" xmlns="http://www.w3.org/2000/svg">
<path d="M7 10.1797V8.92969C7 8.7226 7.16791 8.55469 7.375 8.55469H8.625C8.83209 8.55469 9 8.7226 9 8.92969V10.1797C9 10.3868 8.83209 10.5547 8.625 10.5547H7.375C7.16791 10.5547 7 10.3868 7 10.1797ZM11.375 10.5547H12.625C12.8321 10.5547 13 10.3868 13 10.1797V8.92969C13 8.7226 12.8321 8.55469 12.625 8.55469H11.375C11.1679 8.55469 11 8.7226 11 8.92969V10.1797C11 10.3868 11.1679 10.5547 11.375 10.5547ZM9 13.1797V11.9297C9 11.7226 8.83209 11.5547 8.625 11.5547H7.375C7.16791 11.5547 7 11.7226 7 11.9297V13.1797C7 13.3868 7.16791 13.5547 7.375 13.5547H8.625C8.83209 13.5547 9 13.3868 9 13.1797ZM11.375 13.5547H12.625C12.8321 13.5547 13 13.3868 13 13.1797V11.9297C13 11.7226 12.8321 11.5547 12.625 11.5547H11.375C11.1679 11.5547 11 11.7226 11 11.9297V13.1797C11 13.3868 11.1679 13.5547 11.375 13.5547ZM17 17.4297V18.5547H3V17.4297C3 17.2226 3.16791 17.0547 3.375 17.0547H3.98438V5.21203C3.98438 4.849 4.32016 4.55469 4.73438 4.55469H7.5V3.30469C7.5 2.89047 7.83578 2.55469 8.25 2.55469H11.75C12.1642 2.55469 12.5 2.89047 12.5 3.30469V4.55469H15.2656C15.6798 4.55469 16.0156 4.849 16.0156 5.21203V17.0547H16.625C16.8321 17.0547 17 17.2226 17 17.4297ZM5.48438 17.0235H9V14.9297C9 14.7226 9.16791 14.5547 9.375 14.5547H10.625C10.8321 14.5547 11 14.7226 11 14.9297V17.0235H14.5156V6.05469H12.5V6.80469C12.5 7.21891 12.1642 7.55469 11.75 7.55469H8.25C7.83578 7.55469 7.5 7.21891 7.5 6.80469V6.05469H5.48438V17.0235ZM11.3125 4.55469H10.5V3.74219C10.5 3.69246 10.4802 3.64477 10.4451 3.60961C10.4099 3.57444 10.3622 3.55469 10.3125 3.55469H9.6875C9.63777 3.55469 9.59008 3.57444 9.55492 3.60961C9.51975 3.64477 9.5 3.69246 9.5 3.74219V4.55469H8.6875C8.63777 4.55469 8.59008 4.57444 8.55492 4.60961C8.51975 4.64477 8.5 4.69246 8.5 4.74219V5.36719C8.5 5.41692 8.51975 5.46461 8.55492 5.49977C8.59008 5.53494 8.63777 5.55469 8.6875 5.55469H9.5V6.36719C9.5 6.41692 9.51975 6.46461 9.55492 6.49977C9.59008 6.53494 9.63777 6.55469 9.6875 6.55469H10.3125C10.3622 6.55469 10.4099 6.53494 10.4451 6.49977C10.4802 6.46461 10.5 6.41692 10.5 6.36719V5.55469H11.3125C11.3622 5.55469 11.4099 5.53494 11.4451 5.49977C11.4802 5.46461 11.5 5.41692 11.5 5.36719V4.74219C11.5 4.69246 11.4802 4.64477 11.4451 4.60961C11.4099 4.57444 11.3622 4.55469 11.3125 4.55469Z" fill="#8CC63E"/>
</svg>
