<svg width="13" height="13" viewBox="0 0 13 13" fill="none" xmlns="http://www.w3.org/2000/svg">
<path d="M4.69232 1.02441H8.99605C10.6356 1.02441 11.9677 2.35652 11.9677 3.99603V8.29976C11.9677 9.08788 11.6546 9.84372 11.0973 10.401C10.54 10.9583 9.78417 11.2714 8.99605 11.2714H4.69232C3.05281 11.2714 1.7207 9.93927 1.7207 8.29976V3.99603C1.7207 3.20791 2.03378 2.45207 2.59107 1.89478C3.14836 1.33749 3.9042 1.02441 4.69232 1.02441ZM4.58985 2.04911C4.10067 2.04911 3.63153 2.24344 3.28563 2.58934C2.93973 2.93524 2.7454 3.40438 2.7454 3.89356V8.40223C2.7454 9.4218 3.57028 10.2467 4.58985 10.2467H9.09852C9.58769 10.2467 10.0568 10.0524 10.4027 9.70645C10.7486 9.36055 10.943 8.89141 10.943 8.40223V3.89356C10.943 2.87399 10.1181 2.04911 9.09852 2.04911H4.58985ZM9.53401 2.81763C9.70387 2.81763 9.86676 2.88511 9.98687 3.00521C10.107 3.12532 10.1744 3.28821 10.1744 3.45807C10.1744 3.62792 10.107 3.79082 9.98687 3.91092C9.86676 4.03103 9.70387 4.0985 9.53401 4.0985C9.36416 4.0985 9.20126 4.03103 9.08115 3.91092C8.96105 3.79082 8.89358 3.62792 8.89358 3.45807C8.89358 3.28821 8.96105 3.12532 9.08115 3.00521C9.20126 2.88511 9.36416 2.81763 9.53401 2.81763ZM6.84418 3.58615C7.5236 3.58615 8.17519 3.85605 8.65561 4.33647C9.13603 4.81689 9.40592 5.46848 9.40592 6.14789C9.40592 6.82731 9.13603 7.4789 8.65561 7.95932C8.17519 8.43974 7.5236 8.70963 6.84418 8.70963C6.16477 8.70963 5.51318 8.43974 5.03276 7.95932C4.55234 7.4789 4.28244 6.82731 4.28244 6.14789C4.28244 5.46848 4.55234 4.81689 5.03276 4.33647C5.51318 3.85605 6.16477 3.58615 6.84418 3.58615ZM6.84418 4.61085C6.43653 4.61085 6.04558 4.77279 5.75733 5.06104C5.46908 5.34929 5.30714 5.74025 5.30714 6.14789C5.30714 6.55554 5.46908 6.9465 5.75733 7.23475C6.04558 7.523 6.43653 7.68494 6.84418 7.68494C7.25183 7.68494 7.64279 7.523 7.93104 7.23475C8.21929 6.9465 8.38123 6.55554 8.38123 6.14789C8.38123 5.74025 8.21929 5.34929 7.93104 5.06104C7.64279 4.77279 7.25183 4.61085 6.84418 4.61085Z" fill="white"/>
</svg>
