<svg width="59" height="31" viewBox="0 0 59 31" fill="none" xmlns="http://www.w3.org/2000/svg">
<path fill-rule="evenodd" clip-rule="evenodd" d="M0 15.4206V30.7787L7.13098 30.7787H13.5705L14.1319 29.0891C14.4606 28.1715 14.6649 27.588 14.8029 27.3489C13.7985 29.0891 7.32863 29.9848 3.96182 30.034L3.99012 15.0483L4.01841 0.0625604H2.00921H0V15.4206ZM9.11413 0.061874C9.11413 0.0958929 11.7151 4.00873 14.894 8.75718L20.6739 17.3906V24.0534V30.7161H22.7107H24.7474L24.7503 23.6426L24.7531 16.5691L27.8887 12.3305C29.6132 9.99926 32.3642 6.2836 34.0021 4.07346L36.98 0.0550467L34.9214 0.0249902C33.7891 0.00847615 32.8326 0.0253199 32.7959 0.0624214C32.7592 0.099523 32.8591 0.236811 33.0179 0.367712C33.4169 0.696562 33.5549 1.00515 33.5549 1.56916C33.5549 2.55538 32.9496 3.99761 31.8707 5.58219C31.3243 6.38466 25.8707 13.9308 24.9838 15.1117C24.7672 15.4 24.5533 15.623 24.5084 15.6071C24.4635 15.5912 23.6254 14.3892 22.6462 12.936C20.6171 9.92483 17.9828 6.02003 15.5717 2.44958L13.9174 0H11.5158C10.1949 0 9.11413 0.027855 9.11413 0.061874Z" fill="#8CC63E"/>
<path d="M42.0792 30.7235H42.8744C46.8448 22.8924 50.815 15.0612 54.7877 7.23128C56.7658 3.33287 58.3842 0.124954 58.3842 0.102715C58.3842 0.0805866 57.4181 0.0624214 56.2373 0.0624214C53.9842 0.0624214 53.829 0.100295 54.3633 0.520522C54.9378 0.972347 55.145 2.79539 54.8056 4.41112C54.4525 6.09159 53.901 7.35414 51.0305 13.0535C48.1249 18.8225 44.3951 26.1763 44.3389 26.2471L35.0108 8.39493L32.4459 11.7534L42.0792 30.7235Z" fill="#8CC63E"/>
</svg>
