<svg width="32" height="32" viewBox="0 0 32 32" fill="none" xmlns="http://www.w3.org/2000/svg">
<path d="M4.78316 19.7156L2.65198 17.5844C1.78267 16.7151 1.78267 15.2849 2.65198 14.4156L4.78316 12.2844C5.1477 11.9199 5.44214 11.2048 5.44214 10.7V7.68548C5.44214 6.45163 6.45166 5.44214 7.68551 5.44214H10.7C11.2048 5.44214 11.9199 5.14774 12.2844 4.7832L14.4156 2.65198C15.2849 1.78267 16.715 1.78267 17.5843 2.65198L19.7155 4.7832C20.0801 5.14774 20.7952 5.44214 21.2999 5.44214H24.3144C25.5483 5.44214 26.5578 6.45163 26.5578 7.68548V10.7C26.5578 11.2048 26.8522 11.9199 27.2168 12.2844L29.348 14.4156C30.2173 15.2849 30.2173 16.7151 29.348 17.5844L27.2168 19.7156C26.8522 20.0801 26.5578 20.7952 26.5578 21.2999V24.3143C26.5578 25.5482 25.5483 26.5578 24.3144 26.5578H21.2999C20.7952 26.5578 20.0801 26.8523 19.7155 27.2168L17.5843 29.348C16.715 30.2173 15.2849 30.2173 14.4156 29.348L12.2844 27.2168C11.9199 26.8523 11.2048 26.5578 10.7 26.5578H7.68551C6.45166 26.5578 5.44214 25.5482 5.44214 24.3143V21.2999C5.44214 20.7812 5.1477 20.0661 4.78316 19.7156Z" stroke="#D2FD9C" stroke-width="2.10315" stroke-linecap="round" stroke-linejoin="round"/>
<path d="M11.8086 20.1919L20.2212 11.7793" stroke="#D2FD9C" stroke-width="2.10315" stroke-linecap="round" stroke-linejoin="round"/>
<path d="M19.5127 19.4902H19.5244" stroke="#D2FD9C" stroke-width="2.8042" stroke-linecap="round" stroke-linejoin="round"/>
<path d="M12.502 12.4805H12.5136" stroke="#D2FD9C" stroke-width="2.8042" stroke-linecap="round" stroke-linejoin="round"/>
</svg>
