<svg width="20" height="21" viewBox="0 0 20 21" fill="none" xmlns="http://www.w3.org/2000/svg">
<path d="M10.0031 11.5547C12.4886 11.5547 14.5051 9.53907 14.5051 7.05469C14.5051 4.57031 12.4886 2.55469 10.0031 2.55469C7.51764 2.55469 5.50111 4.57031 5.50111 7.05469C5.50111 9.53907 7.51764 11.5547 10.0031 11.5547ZM10.0031 4.05469C11.657 4.05469 13.0045 5.40156 13.0045 7.05469C13.0045 8.70781 11.657 10.0547 10.0031 10.0547C8.34926 10.0547 7.00178 8.70781 7.00178 7.05469C7.00178 5.40156 8.34926 4.05469 10.0031 4.05469ZM12.8044 12.0547C12.4605 12.0547 12.1228 12.136 11.7977 12.2485C11.2349 12.4453 10.6315 12.5547 10.0031 12.5547C9.37471 12.5547 8.77132 12.4453 8.20857 12.2485C7.88343 12.136 7.54577 12.0547 7.20187 12.0547C4.88209 12.0547 3 13.936 3 16.2547V17.8047C3 18.2203 3.33452 18.5547 3.75033 18.5547C4.16614 18.5547 4.50067 18.2203 4.50067 17.8047V16.2547C4.50067 14.8328 5.60741 13.6797 7.00178 13.5735V15.136C6.27959 15.3516 5.75123 16.0141 5.75123 16.8047C5.75123 17.7703 6.53595 18.5547 7.50201 18.5547C8.46806 18.5547 9.25279 17.7703 9.25279 16.8047C9.25279 16.0141 8.72442 15.3516 8.00223 15.136V13.7391C8.65252 13.9359 9.32469 14.0547 10.0031 14.0547C10.6847 14.0547 11.3537 13.9359 12.004 13.7391V14.8735C11.1224 15.1078 10.5033 15.9516 10.5033 16.8922V17.8047C10.5033 17.936 10.5565 18.0641 10.6503 18.1578L10.9723 18.4797C11.0692 18.5766 11.2287 18.5766 11.3256 18.4797L11.6789 18.1266C11.7758 18.0297 11.7758 17.8703 11.6789 17.7735L11.5007 17.5953V16.8047C11.5007 16.1985 12.0447 15.7172 12.6699 15.8172C13.1608 15.8985 13.5016 16.361 13.5016 16.8578V17.5953L13.3233 17.7735C13.2264 17.8703 13.2264 18.0297 13.3233 18.1266L13.6766 18.4797C13.7735 18.5766 13.933 18.5766 14.0299 18.4797L14.3519 18.1578C14.4457 18.0641 14.4989 17.936 14.4989 17.8047V16.8047C14.4989 15.8766 13.858 15.1016 12.9982 14.8797V13.5766C14.3926 13.6797 15.4993 14.8359 15.4993 16.2578V17.8047C15.4993 18.2203 15.8338 18.5547 16.2497 18.5547C16.6655 18.5547 17 18.2203 17 17.8047V16.2547C17.0062 13.936 15.1242 12.0547 12.8044 12.0547ZM8.25234 16.8047C8.25234 17.2203 7.91782 17.5547 7.50201 17.5547C7.08619 17.5547 6.75167 17.2203 6.75167 16.8047C6.75167 16.3891 7.08619 16.0547 7.50201 16.0547C7.91782 16.0547 8.25234 16.3891 8.25234 16.8047Z" fill="#8CC63E"/>
</svg>
