<svg width="13" height="13" viewBox="0 0 13 13" fill="none" xmlns="http://www.w3.org/2000/svg">
<path d="M9.01929 2.62977C8.63024 2.18547 8.4158 1.61498 8.41586 1.02441H6.65679V8.08343C6.64351 8.46553 6.48232 8.82752 6.20724 9.09304C5.93216 9.35856 5.56469 9.50685 5.18237 9.50662C4.374 9.50662 3.70225 8.84626 3.70225 8.0265C3.70225 7.04735 4.64725 6.31298 5.62071 6.6147V4.81579C3.65671 4.55392 1.9375 6.07958 1.9375 8.0265C1.9375 9.92219 3.5087 11.2714 5.17668 11.2714C6.9642 11.2714 8.41586 9.81972 8.41586 8.0265V4.44576C9.12916 4.95802 9.98556 5.23287 10.8637 5.23136V3.4723C10.8637 3.4723 9.7935 3.52353 9.01929 2.62977Z" fill="white"/>
</svg>
